<?xml version="1.0" encoding="UTF-8" standalone="no"?>
<!DOCTYPE svg PUBLIC "-//W3C//DTD SVG 1.1//EN"
 "http://www.w3.org/Graphics/SVG/1.1/DTD/svg11.dtd">
<!-- Generated by graphviz version 2.43.0 (0)
 -->
<!-- Title: cluster0file_operations.py Pages: 1 -->
<svg width="1189pt" height="249pt"
 viewBox="0.00 0.00 1188.50 248.50" xmlns="http://www.w3.org/2000/svg" xmlns:xlink="http://www.w3.org/1999/xlink">
<g id="graph0" class="graph" transform="scale(1 1) rotate(0) translate(4 244.5)">
<title>cluster0file_operations.py</title>
<polygon fill="white" stroke="transparent" points="-4,4 -4,-244.5 1184.5,-244.5 1184.5,4 -4,4"/>
<text text-anchor="middle" x="590.25" y="-7.8" font-family="DejaVu Sans Mono" font-size="14.00">file_operations.py</text>
<g id="clust1" class="cluster">
<title>cluster0list_files</title>
<polygon fill="none" stroke="black" points="355.5,-157.5 355.5,-232.5 454.5,-232.5 454.5,-157.5 355.5,-157.5"/>
<text text-anchor="middle" x="405" y="-217.3" font-family="DejaVu Sans Mono" font-size="14.00">list_files</text>
</g>
<g id="clust2" class="cluster">
<title>cluster0search_file</title>
<polygon fill="none" stroke="black" points="462.5,-157.5 462.5,-232.5 569.5,-232.5 569.5,-157.5 462.5,-157.5"/>
<text text-anchor="middle" x="516" y="-217.3" font-family="DejaVu Sans Mono" font-size="14.00">search_file</text>
</g>
<g id="clust3" class="cluster">
<title>cluster0copy_file</title>
<polygon fill="none" stroke="black" points="577.5,-157.5 577.5,-232.5 668.5,-232.5 668.5,-157.5 577.5,-157.5"/>
<text text-anchor="middle" x="623" y="-217.3" font-family="DejaVu Sans Mono" font-size="14.00">copy_file</text>
</g>
<g id="clust4" class="cluster">
<title>cluster0delete_file</title>
<polygon fill="none" stroke="black" points="676.5,-157.5 676.5,-232.5 783.5,-232.5 783.5,-157.5 676.5,-157.5"/>
<text text-anchor="middle" x="730" y="-217.3" font-family="DejaVu Sans Mono" font-size="14.00">delete_file</text>
</g>
<g id="clust5" class="cluster">
<title>cluster_KEY</title>
<polygon fill="none" stroke="black" points="791.5,-31 791.5,-232.5 1172.5,-232.5 1172.5,-31 791.5,-31"/>
<text text-anchor="middle" x="982" y="-217.3" font-family="DejaVu Sans Mono" font-size="14.00">KEY</text>
</g>
<!-- 1 -->
<g id="node1" class="node">
<title>1</title>
<polygon fill="#fffb81" stroke="black" points="347,-240 0,-240 0,-127 347,-127 347,-240"/>
<text text-anchor="start" x="8" y="-224.8" font-family="DejaVu Sans Mono" font-size="14.00">import os</text>
<text text-anchor="start" x="8" y="-209.8" font-family="DejaVu Sans Mono" font-size="14.00">import shutil</text>
<text text-anchor="start" x="8" y="-194.8" font-family="DejaVu Sans Mono" font-size="14.00">from utils import log</text>
<text text-anchor="start" x="8" y="-179.8" font-family="DejaVu Sans Mono" font-size="14.00">def list_files(directory):...</text>
<text text-anchor="start" x="8" y="-164.8" font-family="DejaVu Sans Mono" font-size="14.00">def search_file(directory, filename):...</text>
<text text-anchor="start" x="8" y="-149.8" font-family="DejaVu Sans Mono" font-size="14.00">def copy_file(source, destination):...</text>
<text text-anchor="middle" x="173.5" y="-134.8" font-family="DejaVu Sans Mono" font-size="14.00">def delete_file(filepath):...</text>
</g>
<!-- 3 -->
<g id="node2" class="node">
<title>3</title>
<polygon fill="#fffb81" stroke="black" points="432.5,-201.5 378.5,-201.5 378.5,-165.5 432.5,-165.5 432.5,-201.5"/>
</g>
<!-- 17 -->
<g id="node3" class="node">
<title>17</title>
<polygon fill="#fffb81" stroke="black" points="542.5,-201.5 488.5,-201.5 488.5,-165.5 542.5,-165.5 542.5,-201.5"/>
</g>
<!-- 38 -->
<g id="node4" class="node">
<title>38</title>
<polygon fill="#fffb81" stroke="black" points="649.5,-201.5 595.5,-201.5 595.5,-165.5 649.5,-165.5 649.5,-201.5"/>
</g>
<!-- 49 -->
<g id="node5" class="node">
<title>49</title>
<polygon fill="#fffb81" stroke="black" points="756.5,-201.5 702.5,-201.5 702.5,-165.5 756.5,-165.5 756.5,-201.5"/>
</g>
<!-- input -->
<g id="node6" class="node">
<title>input</title>
<polygon fill="#afeeee" stroke="black" points="1164.54,-119 1076.98,-119 1054.46,-83 1142.02,-83 1164.54,-119"/>
<text text-anchor="middle" x="1109.5" y="-97.3" font-family="DejaVu Sans Mono" font-size="14.00">input</text>
</g>
<!-- call -->
<g id="node11" class="node">
<title>call</title>
<polygon fill="#e552ff" stroke="black" points="1136.5,-75 1094.5,-75 1094.5,-79 1082.5,-79 1082.5,-39 1136.5,-39 1136.5,-75"/>
<polyline fill="none" stroke="black" points="1082.5,-75 1094.5,-75 "/>
<text text-anchor="middle" x="1109.5" y="-53.3" font-family="DejaVu Sans Mono" font-size="14.00">call</text>
</g>
<!-- input&#45;&gt;call -->
<!-- default -->
<g id="node7" class="node">
<title>default</title>
<polygon fill="#fffb81" stroke="black" points="1010.5,-75 936.5,-75 936.5,-39 1010.5,-39 1010.5,-75"/>
<text text-anchor="middle" x="973.5" y="-53.3" font-family="DejaVu Sans Mono" font-size="14.00">default</text>
</g>
<!-- if -->
<g id="node8" class="node">
<title>if</title>
<polygon fill="#ff6752" stroke="black" points="1109.5,-201.5 1079.33,-183.5 1109.5,-165.5 1139.67,-183.5 1109.5,-201.5"/>
<text text-anchor="middle" x="1109.5" y="-179.8" font-family="DejaVu Sans Mono" font-size="14.00">if</text>
</g>
<!-- if&#45;&gt;input -->
<!-- for -->
<g id="node9" class="node">
<title>for</title>
<polygon fill="#ffbe52" stroke="black" points="1060.04,-183.5 1044.77,-201.5 1014.23,-201.5 998.96,-183.5 1014.23,-165.5 1044.77,-165.5 1060.04,-183.5"/>
<text text-anchor="middle" x="1029.5" y="-179.8" font-family="DejaVu Sans Mono" font-size="14.00">for</text>
</g>
<!-- return -->
<g id="node12" class="node">
<title>return</title>
<polygon fill="#98fb98" stroke="black" points="1036.29,-119 936.41,-119 910.71,-83 1010.59,-83 1036.29,-119"/>
<text text-anchor="middle" x="973.5" y="-97.3" font-family="DejaVu Sans Mono" font-size="14.00">return</text>
</g>
<!-- for&#45;&gt;return -->
<!-- while -->
<g id="node10" class="node">
<title>while</title>
<polygon fill="#ffbe52" stroke="black" points="981.06,-183.5 959.28,-201.5 915.72,-201.5 893.94,-183.5 915.72,-165.5 959.28,-165.5 981.06,-183.5"/>
<text text-anchor="middle" x="937.5" y="-179.8" font-family="DejaVu Sans Mono" font-size="14.00">while</text>
</g>
<!-- return&#45;&gt;default -->
<!-- try -->
<g id="node13" class="node">
<title>try</title>
<polygon fill="orange" stroke="black" points="838.5,-201.5 800.63,-183.5 838.5,-165.5 876.37,-183.5 838.5,-201.5"/>
<polyline fill="none" stroke="black" points="811.47,-188.65 811.47,-178.35 "/>
<polyline fill="none" stroke="black" points="827.66,-170.65 849.34,-170.65 "/>
<polyline fill="none" stroke="black" points="865.53,-178.35 865.53,-188.65 "/>
<polyline fill="none" stroke="black" points="849.34,-196.35 827.66,-196.35 "/>
<text text-anchor="middle" x="838.5" y="-179.8" font-family="DejaVu Sans Mono" font-size="14.00">try</text>
</g>
<!-- raise -->
<g id="node14" class="node">
<title>raise</title>
<polygon fill="#98fb98" stroke="black" points="893.19,-106.56 846.5,-119 799.81,-106.56 799.85,-86.44 893.15,-86.44 893.19,-106.56"/>
<text text-anchor="middle" x="846.5" y="-97.3" font-family="DejaVu Sans Mono" font-size="14.00">raise</text>
</g>
<!-- try&#45;&gt;raise -->
</g>
</svg>
